<svg xmlns="http://www.w3.org/2000/svg" width="84" height="84" viewBox="0 0 84 84">
  <g id="Layer_2" data-name="Layer 2" transform="translate(0 -0.112)">
    <g id="invisible_box" data-name="invisible box">
      <rect id="Rectangle_13336" data-name="Rectangle 13336" width="84" height="84" transform="translate(0 0.112)" fill="none"/>
    </g>
    <g id="Q3_icons" data-name="Q3 icons" transform="translate(10.514 3.503)">
      <path id="Path_75353" data-name="Path 75353" d="M50.509,15.844l2.629-9.112a3.5,3.5,0,0,0-3.329-4.556h-.7L37.542,8.309,23.7,2h-.876a3.329,3.329,0,0,0-3.329,4.206l3.855,10.514C13.009,24.431,6,39.15,6,50.365,6,66.312,20.194,79.1,37.542,79.1S69.084,66.312,69.084,50.365C69.084,38.8,61.374,23.2,50.509,15.844Zm-.7,36.1a8.586,8.586,0,0,1-3.5,7.009,11.04,11.04,0,0,1-5.257,2.278v3.855a3.5,3.5,0,0,1-3.5,3.5,3.329,3.329,0,0,1-3.5-3.5V61.23A19.1,19.1,0,0,1,26.5,58.076a3.154,3.154,0,0,1-.526-4.556,3.5,3.5,0,0,1,4.907-1.051,11.741,11.741,0,0,0,7.185,2.278h0c2.629,0,4.381-1.051,4.381-2.453s0-1.928-5.783-3.154-11.39-3.154-11.39-9.638,3.5-8.236,8.762-9.287v-3.68a3.329,3.329,0,0,1,3.5-3.5,3.5,3.5,0,0,1,3.5,3.5v3.855a21.028,21.028,0,0,1,5.432,2.278,3.329,3.329,0,0,1,.7,4.907,3.154,3.154,0,0,1-4.731.876,11.04,11.04,0,0,0-5.783-1.577,5.958,5.958,0,0,0-3.154.7c-.526.526-.876.876-.876,1.577s0,1.928,6.133,3.154S49.808,45.459,49.808,51.942Z" transform="translate(-6 -1.999)" fill="#ea372f"/>
    </g>
  </g>
</svg>
